<?xml version="1.0" standalone="no"?>
<svg xmlns="http://www.w3.org/2000/svg" width="100%" >
   <path fill="#0099ff" fill-opacity="1" d="M0,320L17.1,309.3C34.3,299,69,277,103,272C137.1,267,171,277,206,282.7C240,288,274,288,309,250.7C342.9,213,377,139,411,138.7C445.7,139,480,213,514,202.7C548.6,192,583,96,617,74.7C651.4,53,686,107,720,149.3C754.3,192,789,224,823,245.3C857.1,267,891,277,926,256C960,235,994,181,1029,149.3C1062.9,117,1097,107,1131,96C1165.7,85,1200,75,1234,64C1268.6,53,1303,43,1337,80C1371.4,117,1406,203,1423,245.3L1440,288L1440,0L1422.9,0C1405.7,0,1371,0,1337,0C1302.9,0,1269,0,1234,0C1200,0,1166,0,1131,0C1097.1,0,1063,0,1029,0C994.3,0,960,0,926,0C891.4,0,857,0,823,0C788.6,0,754,0,720,0C685.7,0,651,0,617,0C582.9,0,549,0,514,0C480,0,446,0,411,0C377.1,0,343,0,309,0C274.3,0,240,0,206,0C171.4,0,137,0,103,0C68.6,0,34,0,17,0L0,0Z"></path>
</svg>